<?xml version="1.0" encoding="UTF-8" standalone="no"?>
<!-- Created with Inkscape (http://www.inkscape.org/) -->

<svg
   xmlns:dc="http://purl.org/dc/elements/1.1/"
   xmlns:cc="http://creativecommons.org/ns#"
   xmlns:rdf="http://www.w3.org/1999/02/22-rdf-syntax-ns#"
   xmlns:svg="http://www.w3.org/2000/svg"
   xmlns="http://www.w3.org/2000/svg"
   xmlns:sodipodi="http://sodipodi.sourceforge.net/DTD/sodipodi-0.dtd"
   xmlns:inkscape="http://www.inkscape.org/namespaces/inkscape"
   id="svg2"
   version="1.1"
   inkscape:version="0.91 r13725"
   xml:space="preserve"
   width="16"
   height="16"
   viewBox="0 0 16 16"
   sodipodi:docname="akindi-icon.svg"
   inkscape:export-filename="/Users/wolever/Akindi/repos/moodle-local_akindi/pix/akindi-icon.png"
   inkscape:export-xdpi="89.996742"
   inkscape:export-ydpi="89.996742"><metadata
     id="metadata8"><rdf:RDF><cc:Work
         rdf:about=""><dc:format>image/svg+xml</dc:format><dc:type
           rdf:resource="http://purl.org/dc/dcmitype/StillImage" /><dc:title></dc:title></cc:Work></rdf:RDF></metadata><defs
     id="defs6" /><sodipodi:namedview
     pagecolor="#ffffff"
     bordercolor="#666666"
     borderopacity="1"
     objecttolerance="10"
     gridtolerance="10"
     guidetolerance="10"
     inkscape:pageopacity="0"
     inkscape:pageshadow="2"
     inkscape:window-width="1440"
     inkscape:window-height="855"
     id="namedview4"
     showgrid="false"
     inkscape:zoom="8"
     inkscape:cx="9.8896475"
     inkscape:cy="4.5487481"
     inkscape:window-x="1564"
     inkscape:window-y="75"
     inkscape:window-maximized="0"
     inkscape:current-layer="g4154"
     borderlayer="false"
     inkscape:showpageshadow="false"
     fit-margin-top="0"
     fit-margin-left="0"
     fit-margin-right="0"
     fit-margin-bottom="0" /><g
     id="g10"
     inkscape:groupmode="layer"
     inkscape:label="ink_ext_XXXXXX"
     transform="matrix(1.25,0,0,-1.25,-130.58568,395.97911)"><g
       id="g4154"
       transform="matrix(0.07754484,0,0,0.07756213,95.52091,295.03223)"><path
         style="fill:#7e7e85;fill-opacity:0.94117647;fill-rule:nonzero;stroke:none"
         d="m 257.84778,166.33789 c -0.24399,-0.36895 -0.52862,-0.73448 -0.88661,-1.04752 -0.14701,-0.12202 -0.30744,-0.21733 -0.46342,-0.32233 -0.055,-0.0409 -0.13752,-0.0789 -0.20149,-0.12088 -0.13102,-0.0739 -0.24791,-0.15554 -0.38285,-0.22155 -0.20406,-0.0971 -0.43329,-0.18607 -0.70524,-0.2821 l -0.12091,-0.0604 -57.58764,-20.64874 24.15934,-8.66237 50.75701,-18.21126 c 0.76993,-0.37894 1.60702,-0.56398 2.43802,-0.56398 1.29102,0 2.58153,0.43206 3.56656,1.26907 1.36396,1.17501 1.89289,2.91173 1.47094,4.53273 l -19.70638,39.6053 -2.33733,4.73407 z"
         id="path16"
         inkscape:connector-curvature="0" /><path
         d="m 255.626,163.536 c 0.272,0.096 0.508,0.196 0.712,0.293 0.135,0.066 0.258,0.146 0.389,0.22 0.064,0.042 0.131,0.087 0.186,0.128 0.156,0.105 0.321,0.196 0.468,0.318 0.358,0.313 0.637,0.673 0.881,1.042 L 202.29,277.969 c -0.878,1.486 -2.55,2.38 -4.37,2.465 -1.821,-0.085 -3.503,-0.979 -4.371,-2.465 L 115.528,121.21 c -0.423,-1.621 0.113,-3.358 1.471,-4.533 0.984,-0.837 2.265,-1.272 3.556,-1.272 0.836,0 1.677,0.178 2.442,0.557 l 74.923,26.874 57.589,20.649 0.117,0.051"
         style="fill:#999999;fill-opacity:1;fill-rule:nonzero;stroke:none"
         id="path20"
         inkscape:connector-curvature="0" /></g></g></svg>